<svg viewBox="0 0 148 50" xmlns="http://www.w3.org/2000/svg" width="148" height="50"><g fill="none" fill-rule="evenodd"><path fill="#9E62C9" d="M23.64 0L.44 8.3l3.6 30.6 19.6 10.9 19.7-10.9 3.5-30.6"/><path fill="#724AB1" d="M23.64 0v49.8l19.7-10.9 3.5-30.6"/><path fill="#FFF" d="M29.24 28.22c-.7 1.2-1.4 2.1-2.1 2.9-.9 1-1.8 1.6-3 2.1-1.3.6-2.4.9-4.3.9s-3.5-.6-4.5-1.2-1.9-1.3-2.6-2.3c-.5-.7-.9-1.3-1.2-2-.1-.4-.4-1.1-.4-1.2-.2-.8-.4-1.3-.4-3.2v-10.2h2.7v10.2c.1.7.3 2.1.4 2.7.1.4.1.5.3 1 .2.5.4.9.8 1.3.5.6 1 1.1 1.7 1.5.7.4 1.8.9 3.2.9 2.3 0 3.9-1.1 5.3-2.3.6-.6 1.3-1.8 1.9-2.9.1-.3.4-.9.4-.9h4.2l-3.1-8.3-5 9.6h-2.7v-12.9h2.7v7l3.6-7h3l7.3 19.8h-2.9l-2.1-5.6-3.2.1z"/><path fill="#fff" d="M57 15.8c0 1.1.9 1.7 2.1 1.7 1.3 0 2.3-.8 2.5-2.1l.7-3.7h-1l-.7 3.6c-.2.8-.7 1.2-1.5 1.2-.7 0-1.1-.3-1.1-.9v-.3l.7-3.6h-1l-.7 3.7v.4zm5.5 1.6H66l.2-.9h-2.5l.9-4.8h-1l-1.1 5.7zm5.5 0h1l.9-4.8h1.9l.2-.9h-4.7l-.3.9h1.8l-.8 4.8zm3.6 0h1l1.1-5.7h-1l-1.1 5.7zm2.3 0h1l.9-3.2c.1-.4.2-.9.2-.9s.1.6.1.9l.5 2.2h.9l1.3-2.2c.2-.3.5-.9.5-.9s-.1.5-.2.9l-.4 3.2h1l.6-5.7h-1.1l-1.7 2.8c-.2.3-.4.8-.4.8s0-.5-.1-.8l-.6-2.8h-1.1l-1.4 5.7zm7.6 0l.8-1.5h2l.2 1.5h1l-.9-5.7h-1.2l-3 5.7h1.1zm1.2-2.3l.8-1.5c.2-.3.4-.9.4-.9s0 .6.1.9l.2 1.5h-1.5zm4.6 2.3h1l.9-4.8h1.9l.2-.9h-4.7l-.2.9h1.8l-.9 4.8zm3.6 0h3.5l.2-.9h-2.5l.3-1.5h1.9l.2-.9h-1.9l.3-1.5h2.4l.2-.9H92l-1.1 5.7z"/><path fill="#fff" d="M63.5 36.9h2.7l-5-14.2h-2.7l-5 14.2h2.7l1.2-3.6h5l1.1 3.6zm-3.7-11.7s.3 1.4.6 2.2l1.3 3.8H58l1.3-3.8c.2-.8.5-2.2.5-2.2zM68 36.9h2.6v-8.2c0-.8-.1-2.2-.1-2.2s.6 1.4 1.2 2.2l5.4 8.2h2.6V22.7H77v8.2c0 .8.1 2.2.1 2.2s-.6-1.4-1.2-2.2l-5.4-8.2H68v14.2zm14.2-7.1c0 4.5 3.2 7.4 7 7.4 2.6 0 4.1-1.5 4.1-1.5V37h2.2v-7.5H91v2.2h2.2v1.7s-1.4 1.5-3.6 1.5c-2.7 0-4.8-2-4.8-5.1 0-2.7 1.7-4.9 4.9-4.9 2.3 0 3.8 1.4 3.8 1.4l1.3-1.9s-1.8-1.8-5.3-1.8c-4.2-.1-7.3 3.1-7.3 7.2zm16 2c0 3.2 2.3 5.3 5.7 5.3 3.4 0 5.7-2.2 5.7-5.3v-9.1H107v9.1c0 1.9-1.3 3-3.2 3-1.9 0-3.1-1.1-3.1-3v-9.1h-2.6v9.1h.1zm14.8 5.1h8.7v-2.2h-6.1v-12H113v14.2zm19.1 0h2.7l-5-14.2H127l-5 14.2h2.7l1.2-3.6h5l1.2 3.6zm-3.7-11.7s.3 1.4.6 2.2l1.3 3.8h-3.7l1.3-3.8c.2-.8.5-2.2.5-2.2zm8.2 11.7h2.6v-5.3h2.5l2.8 5.3h2.9l-2.9-5.3c-.3-.5-.5-.7-.5-.7 1.5-.6 2.4-2.2 2.4-3.9 0-1.9-.9-3.2-2.3-3.9-.6-.3-1.3-.4-2.9-.4h-4.6v14.2zm2.5-7.5V25h2c2 0 2.6.8 2.6 2.2 0 1.4-.9 2.2-2.2 2.2h-2.4z"/></g></svg>
